HIERARCHY
ROOT root
{
	OFFSET 0.00 0.00 0.00
	CHANNELS 6 Xposition Yposition Zposition Zrotation Xrotation Yrotation
	JOINT lowerback
	{
		OFFSET 0 0 0
		CHANNELS 6 Xposition Yposition Zposition Zrotation Xrotation Yrotation
		JOINT upperback
		{
			OFFSET -0.214371 12.3768 -1.12219
			CHANNELS 6 Xposition Yposition Zposition Zrotation Xrotation Yrotation
			JOINT thorax
			{
				OFFSET -0.00137213 12.3873 0.296195
				CHANNELS 6 Xposition Yposition Zposition Zrotation Xrotation Yrotation
				JOINT lowerneck
				{
					OFFSET 0.0883157 12.5016 0.82912
					CHANNELS 6 Xposition Yposition Zposition Zrotation Xrotation Yrotation
					JOINT upperneck
					{
						OFFSET -1 10.1794 0.943522
						CHANNELS 6 Xposition Yposition Zposition Zrotation Xrotation Yrotation
						JOINT head
						{
							OFFSET 0.667525 10.2797 -1.57149
							CHANNELS 6 Xposition Yposition Zposition Zrotation Xrotation Yrotation
							End Site
							{
								OFFSET 0 0 0
							}
						}
					}
				}
				JOINT lclavicle
				{
					OFFSET 0.0883157 12.5016 0.82912
					CHANNELS 6 Xposition Yposition Zposition Zrotation Xrotation Yrotation
					JOINT lhumerus
					{
						OFFSET 20.61 4.45006 1.43784
						CHANNELS 6 Xposition Yposition Zposition Zrotation Xrotation Yrotation
						JOINT lradius
						{
							OFFSET 0 -30.3438 0
							CHANNELS 6 Xposition Yposition Zposition Zrotation Xrotation Yrotation
							JOINT lwrist
							{
								OFFSET 0 -18.964 0
								CHANNELS 6 Xposition Yposition Zposition Zrotation Xrotation Yrotation
								JOINT lhand
								{
									OFFSET 0 -9.48199 0
									CHANNELS 6 Xposition Yposition Zposition Zrotation Xrotation Yrotation
									JOINT lfingers
									{
										OFFSET 0 -3.17138 0
										CHANNELS 6 Xposition Yposition Zposition Zrotation Xrotation Yrotation
										End Site
										{
											OFFSET 0 -2.55685 0
										}
									}
								}
								JOINT lthumb
								{
									OFFSET 0 -9.48199 0
									CHANNELS 6 Xposition Yposition Zposition Zrotation Xrotation Yrotation
									End Site
									{
										OFFSET 0 -3.67114 0
									}
								}
							}
						}
					}
				}
				JOINT rclavicle
				{
					OFFSET 0.0883157 12.5016 0.82912
					CHANNELS 6 Xposition Yposition Zposition Zrotation Xrotation Yrotation
					JOINT rhumerus
					{
						OFFSET -20.61 4.45 1.44
						CHANNELS 6 Xposition Yposition Zposition Zrotation Xrotation Yrotation
						JOINT rradius
						{
							OFFSET 0 -29.5102 0
							CHANNELS 6 Xposition Yposition Zposition Zrotation Xrotation Yrotation
							JOINT rwrist
							{
								OFFSET 0 -19.2342 0
								CHANNELS 6 Xposition Yposition Zposition Zrotation Xrotation Yrotation
								JOINT rhand
								{
									OFFSET 0 -9.61712 0
									CHANNELS 6 Xposition Yposition Zposition Zrotation Xrotation Yrotation
									JOINT rfingers
									{
										OFFSET 0 -3.29215 0
										CHANNELS 6 Xposition Yposition Zposition Zrotation Xrotation Yrotation
										End Site
										{
											OFFSET 0 -2.557 0
										}
									}
								}
								JOINT rthumb
								{
									OFFSET 0 -9.61712 0
									CHANNELS 6 Xposition Yposition Zposition Zrotation Xrotation Yrotation
									End Site
									{
										OFFSET 0 -3.671 0
									}
								}
							}
						}
					}
				}
			}
		}
	}
	JOINT rfemur
	{
		OFFSET -8.46272 -9.62775 4.76248
		CHANNELS 6 Xposition Yposition Zposition Zrotation Xrotation Yrotation
		JOINT rtibia
		{
			OFFSET 1.00552e-005 -38.0331 0
			CHANNELS 6 Xposition Yposition Zposition Zrotation Xrotation Yrotation
			JOINT rfoot
			{
				OFFSET 1.14428e-005 -43.2815 0
				CHANNELS 6 Xposition Yposition Zposition Zrotation Xrotation Yrotation
				JOINT rtoes
				{
					OFFSET 0 -14.1868 -3.08763
					CHANNELS 6 Xposition Yposition Zposition Zrotation Xrotation Yrotation
					End Site
					{
						OFFSET 0 -7.27332 0
					}
				}
			}
		}
	}
	JOINT lfemur
	{
		OFFSET 9.10607 -9.62778 4.76249
		CHANNELS 6 Xposition Yposition Zposition Zrotation Xrotation Yrotation
		JOINT ltibia
		{
			OFFSET -1.01399e-005 -38.3535 0
			CHANNELS 6 Xposition Yposition Zposition Zrotation Xrotation Yrotation
			JOINT lfoot
			{
				OFFSET -1.12937e-005 -42.7176 0
				CHANNELS 6 Xposition Yposition Zposition Zrotation Xrotation Yrotation
				JOINT ltoes
				{
					OFFSET 0 -13.9965 -2.83857
					CHANNELS 6 Xposition Yposition Zposition Zrotation Xrotation Yrotation
					End Site
					{
						OFFSET 0 -7.16348 0
					}
				}
			}
		}
	}
}
MOTION
Frames: 9
Frame Time: 0.00833333
-2.00504	100.059	104.4	-0.690259	4.42197	-4.0078	0 0 0 2.77654	-6.18329	2.07789	-0.214371 12.3768 -1.12219 -2.12772	0.803381	2.65146	-0.00137213 12.3873 0.296195 -3.44706	4.52173	1.41201	0.0883157 12.5016 0.82912 -5.32132	-10.5066	-4.32089	-1 10.1794 0.943522 12.2365	8.47934	-6.37491	0.667525 10.2797 -1.57149 3.99457	4.79944	-2.59474	0.0883157 12.5016 0.82912 -15	0	-0	20.61 4.45006 1.43784 9.62956	2.47793	-161.597	0 -30.3438 0 -0	20.7632	-0	0 -18.964 0 1.29833e-014	-3.69239e-015	-121.751	0 -9.48199 0 1.22245	4.37968	-2.58917e-014	0 -3.17138 0 -0	7.12502	-0	0 -9.48199 0 25	15	-1.36605e-015	0.0883157 12.5016 0.82912 15	0	-0	-20.61 4.45 1.44 -10.594	-2.88917	179.467	0 -29.5102 0 -0	26.0329	-0	0 -19.2342 0 9.98435e-016	-3.60757e-015	120.94	0 -9.61712 0 1.22	4.38	-0	0 -3.29215 0 -0	7.12502	-0	0 -9.61712 0 25	15	-7.97034e-015	-8.46272 -9.62775 4.76248 -1.48597	1.56691	-3.8665	1.00552e-005 -38.0331 0 -0	43.6785	-0	1.14428e-005 -43.2815 0 6.9574	-53.3149	8.65233	0 -14.1868 -3.08763 -0	-29.4956	-0	9.10607 -9.62778 4.76249 -2.4718	-13.3418	14.9285	-1.01399e-005 -38.3535 0 -0	16.0641	-0	-1.12937e-005 -42.7176 0 -7.3383	-63.0974	-8.21662	0 -13.9965 -2.83857 -0	-31.7711	-0
-1.93168	100.066	104.872	-0.51797	4.32903	-4.07827	0 0 0 2.55043	-6.10888	2.02544	-0.214371 12.3768 -1.12219 -2.16695	0.830535	2.60188	-0.00137213 12.3873 0.296195 -3.36879	4.49559	1.38229	0.0883157 12.5016 0.82912 -5.27795	-10.5193	-4.28049	-1 10.1794 0.943522 12.1876	8.5385	-6.32646	0.667525 10.2797 -1.57149 3.97586	4.81263	-2.5704	0.0883157 12.5016 0.82912 -15	0	-0	20.61 4.45006 1.43784 9.74807	2.25625	-161.911	0 -30.3438 0 -0	20.9231	-0	0 -18.964 0 1.29936e-014	-3.67572e-015	-121.591	0 -9.48199 0 1.22245	4.37968	-2.58917e-014	0 -3.17138 0 -0	7.12502	-0	0 -9.48199 0 25	15	-1.36605e-015	0.0883157 12.5016 0.82912 15	0	-0	-20.61 4.45 1.44 -10.5998	-2.90087	179.347	0 -29.5102 0 -0	26.0371	-0	0 -19.2342 0 9.99253e-016	-3.60894e-015	120.953	0 -9.61712 0 1.22	4.38	-0	0 -3.29215 0 -0	7.12502	-0	0 -9.61712 0 25	15	-7.97034e-015	-8.46272 -9.62775 4.76248 -1.87731	0.713485	-3.71326	1.00552e-005 -38.0331 0 -0	45.4351	-0	1.14428e-005 -43.2815 0 6.36081	-52.217	8.02849	0 -14.1868 -3.08763 -0	-27.8886	-0	9.10607 -9.62778 4.76249 -2.76589	-12.7127	15.0997	-1.01399e-005 -38.3535 0 -0	15.6339	-0	-1.12937e-005 -42.7176 0 -7.63537	-63.2109	-8.53985	0 -13.9965 -2.83857 -0	-31.7772	-0
-1.85857	100.07	105.337	-0.360097	4.23208	-4.14212	0 0 0 2.34343	-6.03146	1.96795	-0.214371 12.3768 -1.12219 -2.20215	0.859178	2.5437	-0.00137213 12.3873 0.296195 -3.29807	4.46969	1.34875	0.0883157 12.5016 0.82912 -5.23519	-10.5246	-4.23357	-1 10.1794 0.943522 12.1376	8.59654	-6.269	0.667525 10.2797 -1.57149 3.95813	4.82357	-2.54203	0.0883157 12.5016 0.82912 -15	0	-0	20.61 4.45006 1.43784 9.87106	2.03055	-162.228	0 -30.3438 0 -0	21.0826	-0	0 -18.964 0 1.30038e-014	-3.65912e-015	-121.432	0 -9.48199 0 1.22245	4.37968	-2.58917e-014	0 -3.17138 0 -0	7.12502	-0	0 -9.48199 0 25	15	-1.36605e-015	0.0883157 12.5016 0.82912 15	0	-0	-20.61 4.45 1.44 -10.6058	-2.9215	179.239	0 -29.5102 0 -0	26.0497	-0	0 -19.2342 0 9.9982e-016	-3.60988e-015	120.962	0 -9.61712 0 1.22	4.38	-0	0 -3.29215 0 -0	7.12502	-0	0 -9.61712 0 25	15	-7.97034e-015	-8.46272 -9.62775 4.76248 -2.23589	-0.150043	-3.54103	1.00552e-005 -38.0331 0 -0	47.1595	-0	1.14428e-005 -43.2815 0 5.75399	-51.1768	7.3696	0 -14.1868 -3.08763 -0	-26.4922	-0	9.10607 -9.62778 4.76249 -3.05318	-12.0864	15.2561	-1.01399e-005 -38.3535 0 -0	15.2064	-0	-1.12937e-005 -42.7176 0 -7.90603	-63.3218	-8.83317	0 -13.9965 -2.83857 -0	-31.8139	-0
-1.78529	100.071	105.794	-0.217626	4.13658	-4.20362	0 0 0 2.15666	-5.95738	1.9067	-0.214371 12.3768 -1.12219 -2.23206	0.888686	2.47839	-0.00137213 12.3873 0.296195 -3.23382	4.44706	1.31218	0.0883157 12.5016 0.82912 -5.18903	-10.5251	-4.18243	-1 10.1794 0.943522 12.0789	8.65663	-6.20559	0.667525 10.2797 -1.57149 3.93785	4.83351	-2.51127	0.0883157 12.5016 0.82912 -15	0	-0	20.61 4.45006 1.43784 9.99833	1.79808	-162.547	0 -30.3438 0 -0	21.2368	-0	0 -18.964 0 1.3014e-014	-3.64238e-015	-121.272	0 -9.48199 0 1.22245	4.37968	-2.58917e-014	0 -3.17138 0 -0	7.12502	-0	0 -9.48199 0 25	15	-1.36605e-015	0.0883157 12.5016 0.82912 15	0	-0	-20.61 4.45 1.44 -10.6123	-2.94254	179.134	0 -29.5102 0 -0	26.0807	-0	0 -19.2342 0 9.99316e-016	-3.60904e-015	120.954	0 -9.61712 0 1.22	4.38	-0	0 -3.29215 0 -0	7.12502	-0	0 -9.61712 0 25	15	-7.97034e-015	-8.46272 -9.62775 4.76248 -2.55864	-1.01648	-3.36393	1.00552e-005 -38.0331 0 -0	48.8194	-0	1.14428e-005 -43.2815 0 5.17716	-50.2894	6.71729	0 -14.1868 -3.08763 -0	-25.6083	-0	9.10607 -9.62778 4.76249 -3.32563	-11.4813	15.3858	-1.01399e-005 -38.3535 0 -0	14.8077	-0	-1.12937e-005 -42.7176 0 -8.13809	-63.4408	-9.08231	0 -13.9965 -2.83857 -0	-31.866	-0
-1.71187	100.07	106.242	-0.0925595	4.04015	-4.25633	0 0 0 1.99165	-5.88342	1.84149	-0.214371 12.3768 -1.12219 -2.25716	0.921409	2.40573	-0.00137213 12.3873 0.296195 -3.17743	4.4284	1.27254	0.0883157 12.5016 0.82912 -5.13418	-10.5417	-4.13115	-1 10.1794 0.943522 12.0056	8.73341	-6.14273	0.667525 10.2797 -1.57149 3.91083	4.85053	-2.48033	0.0883157 12.5016 0.82912 -15	0	-0	20.61 4.45006 1.43784 10.1313	1.55684	-162.873	0 -30.3438 0 -0	21.3854	-0	0 -18.964 0 1.30243e-014	-3.62531e-015	-121.109	0 -9.48199 0 1.22245	4.37968	-2.58917e-014	0 -3.17138 0 -0	7.12502	-0	0 -9.48199 0 25	15	-1.36605e-015	0.0883157 12.5016 0.82912 15	0	-0	-20.61 4.45 1.44 -10.6193	-2.96697	179.029	0 -29.5102 0 -0	26.1309	-0	0 -19.2342 0 9.97805e-016	-3.60652e-015	120.93	0 -9.61712 0 1.22	4.38	-0	0 -3.29215 0 -0	7.12502	-0	0 -9.61712 0 25	15	-7.97034e-015	-8.46272 -9.62775 4.76248 -2.84411	-1.88966	-3.18024	1.00552e-005 -38.0331 0 -0	50.4205	-0	1.14428e-005 -43.2815 0 4.55719	-49.4942	5.98444	0 -14.1868 -3.08763 -0	-25.3758	-0	9.10607 -9.62778 4.76249 -3.58086	-10.8975	15.4915	-1.01399e-005 -38.3535 0 -0	14.436	-0	-1.12937e-005 -42.7176 0 -8.33241	-63.5683	-9.28832	0 -13.9965 -2.83857 -0	-31.9429	-0
-1.63714	100.066	106.684	0.0208059	3.94893	-4.30391	0 0 0 1.84632	-5.81408	1.77528	-0.214371 12.3768 -1.12219 -2.28053	0.954557	2.32995	-0.00137213 12.3873 0.296195 -3.13041	4.41365	1.23185	0.0883157 12.5016 0.82912 -5.08079	-10.5513	-4.07761	-1 10.1794 0.943522 11.9347	8.80493	-6.0765	0.667525 10.2797 -1.57149 3.88548	4.86479	-2.44804	0.0883157 12.5016 0.82912 -15	0	-0	20.61 4.45006 1.43784 10.2693	1.30869	-163.203	0 -30.3438 0 -0	21.5308	-0	0 -18.964 0 1.30347e-014	-3.60799e-015	-120.944	0 -9.48199 0 1.22245	4.37968	-2.58917e-014	0 -3.17138 0 -0	7.12502	-0	0 -9.48199 0 25	15	-1.36605e-015	0.0883157 12.5016 0.82912 15	0	-0	-20.61 4.45 1.44 -10.6263	-2.99759	178.929	0 -29.5102 0 -0	26.1955	-0	0 -19.2342 0 9.95791e-016	-3.60316e-015	120.898	0 -9.61712 0 1.22	4.38	-0	0 -3.29215 0 -0	7.12502	-0	0 -9.61712 0 25	15	-7.97034e-015	-8.46272 -9.62775 4.76248 -3.09304	-2.77152	-2.98406	1.00552e-005 -38.0331 0 -0	51.9752	-0	1.14428e-005 -43.2815 0 3.89905	-48.767	5.17854	0 -14.1868 -3.08763 -0	-25.6141	-0	9.10607 -9.62778 4.76249 -3.82191	-10.3266	15.5778	-1.01399e-005 -38.3535 0 -0	14.0803	-0	-1.12937e-005 -42.7176 0 -8.49372	-63.6997	-9.45695	0 -13.9965 -2.83857 -0	-32.0482	-0
-1.56361	100.059	107.119	0.116888	3.85588	-4.3352	0 0 0 1.71622	-5.74257	1.70223	-0.214371 12.3768 -1.12219 -2.29681	0.990421	2.24351	-0.00137213 12.3873 0.296195 -3.08571	4.40042	1.1862	0.0883157 12.5016 0.82912 -5.02024	-10.5713	-4.02482	-1 10.1794 0.943522 11.8498	8.88914	-6.0116	0.667525 10.2797 -1.57149 3.85403	4.88411	-2.41632	0.0883157 12.5016 0.82912 -15	0	-0	20.61 4.45006 1.43784 10.409	1.05662	-163.53	0 -30.3438 0 -0	21.6716	-0	0 -18.964 0 1.30448e-014	-3.59117e-015	-120.784	0 -9.48199 0 1.22245	4.37968	-2.58917e-014	0 -3.17138 0 -0	7.12502	-0	0 -9.48199 0 25	15	-1.36605e-015	0.0883157 12.5016 0.82912 15	0	-0	-20.61 4.45 1.44 -10.6365	-3.02562	178.836	0 -29.5102 0 -0	26.2764	-0	0 -19.2342 0 9.92461e-016	-3.59759e-015	120.845	0 -9.61712 0 1.22	4.38	-0	0 -3.29215 0 -0	7.12502	-0	0 -9.61712 0 25	15	-7.97034e-015	-8.46272 -9.62775 4.76248 -3.30684	-3.65193	-2.7832	1.00552e-005 -38.0331 0 -0	53.4614	-0	1.14428e-005 -43.2815 0 3.33173	-48.2623	4.46093	0 -14.1868 -3.08763 -0	-26.1462	-0	9.10607 -9.62778 4.76249 -4.04814	-9.77355	15.6351	-1.01399e-005 -38.3535 0 -0	13.7529	-0	-1.12937e-005 -42.7176 0 -8.6141	-63.8384	-9.57928	0 -13.9965 -2.83857 -0	-32.1579	-0
-1.49082	100.048	107.546	0.199414	3.76093	-4.35006	0 0 0 1.59909	-5.67005	1.62338	-0.214371 12.3768 -1.12219 -2.30778	1.02776	2.14803	-0.00137213 12.3873 0.296195 -3.0437	4.38816	1.13632	0.0883157 12.5016 0.82912 -4.95734	-10.5879	-3.97132	-1 10.1794 0.943522 11.7605	8.97391	-5.94563	0.667525 10.2797 -1.57149 3.82102	4.90289	-2.38438	0.0883157 12.5016 0.82912 -15	0	-0	20.61 4.45006 1.43784 10.5475	0.803783	-163.845	0 -30.3438 0 -0	21.8066	-0	0 -18.964 0 1.30541e-014	-3.57548e-015	-120.635	0 -9.48199 0 1.22245	4.37968	-2.58917e-014	0 -3.17138 0 -0	7.12502	-0	0 -9.48199 0 25	15	-1.36605e-015	0.0883157 12.5016 0.82912 15	0	-0	-20.61 4.45 1.44 -10.6486	-3.04234	178.748	0 -29.5102 0 -0	26.3749	-0	0 -19.2342 0 9.87319e-016	-3.58896e-015	120.763	0 -9.61712 0 1.22	4.38	-0	0 -3.29215 0 -0	7.12502	-0	0 -9.61712 0 25	15	-7.97034e-015	-8.46272 -9.62775 4.76248 -3.48752	-4.52072	-2.58545	1.00552e-005 -38.0331 0 -0	54.8569	-0	1.14428e-005 -43.2815 0 2.96568	-48.1386	3.9792	0 -14.1868 -3.08763 -0	-26.795	-0	9.10607 -9.62778 4.76249 -4.25856	-9.2431	15.6534	-1.01399e-005 -38.3535 0 -0	13.4661	-0	-1.12937e-005 -42.7176 0 -8.68587	-63.9876	-9.64674	0 -13.9965 -2.83857 -0	-32.2479	-0
-1.41974	100.033	107.968	0.262699	3.66303	-4.35735	0 0 0 1.49984	-5.59148	1.54216	-0.214371 12.3768 -1.12219 -2.31218	1.06599	2.04767	-0.00137213 12.3873 0.296195 -3.00546	4.37383	1.08437	0.0883157 12.5016 0.82912 -4.89669	-10.6012	-3.9134	-1 10.1794 0.943522 11.6786	9.05326	-5.87371	0.667525 10.2797 -1.57149 3.79158	4.91945	-2.34945	0.0883157 12.5016 0.82912 -15	0	-0	20.61 4.45006 1.43784 10.6844	0.551051	-164.144	0 -30.3438 0 -0	21.936	-0	0 -18.964 0 1.30624e-014	-3.56135e-015	-120.501	0 -9.48199 0 1.22245	4.37968	-2.58917e-014	0 -3.17138 0 -0	7.12502	-0	0 -9.48199 0 25	15	-1.36605e-015	0.0883157 12.5016 0.82912 15	0	-0	-20.61 4.45 1.44 -10.6628	-3.04539	178.666	0 -29.5102 0 -0	26.4961	-0	0 -19.2342 0 9.80002e-016	-3.57664e-015	120.646	0 -9.61712 0 1.22	4.38	-0	0 -3.29215 0 -0	7.12502	-0	0 -9.61712 0 25	15	-7.97034e-015	-8.46272 -9.62775 4.76248 -3.63122	-5.37491	-2.39413	1.00552e-005 -38.0331 0 -0	56.1653	-0	1.14428e-005 -43.2815 0 2.83586	-48.4844	3.78491	0 -14.1868 -3.08763 -0	-27.5983	-0	9.10607 -9.62778 4.76249 -4.44833	-8.73652	15.6311	-1.01399e-005 -38.3535 0 -0	13.2224	-0	-1.12937e-005 -42.7176 0 -8.71657	-64.1455	-9.66799	0 -13.9965 -2.83857 -0	-32.3055	-0
